<?xml version="1.0" encoding="us-ascii" standalone="no"?><svg xmlns="http://www.w3.org/2000/svg" xmlns:xlink="http://www.w3.org/1999/xlink" contentStyleType="text/css" height="837px" preserveAspectRatio="none" style="width:1715px;height:837px;background:#FFFFFF;" version="1.1" viewBox="0 0 1715 837" width="1715px" zoomAndPan="magnify"><defs/><g><!--class App--><g id="elem_App"><rect codeLine="2" fill="#F1F1F1" height="124.2717" id="App" rx="2.5" ry="2.5" style="stroke:#181818;stroke-width:0.5;" width="303" x="7" y="706"/><ellipse cx="140.75" cy="722" fill="#ADD1B2" rx="11" ry="11" style="stroke:#181818;stroke-width:1.0;"/><path d="M143.7188,727.6406 Q143.1406,727.9375 142.5,728.0781 Q141.8594,728.2344 141.1563,728.2344 Q138.6563,728.2344 137.3281,726.5938 Q136.0156,724.9375 136.0156,721.8125 Q136.0156,718.6875 137.3281,717.0313 Q138.6563,715.375 141.1563,715.375 Q141.8594,715.375 142.5,715.5313 Q143.1563,715.6875 143.7188,715.9844 L143.7188,718.7031 Q143.0938,718.125 142.5,717.8594 Q141.9063,717.5781 141.2813,717.5781 Q139.9375,717.5781 139.25,718.6563 Q138.5625,719.7188 138.5625,721.8125 Q138.5625,723.9063 139.25,724.9844 Q139.9375,726.0469 141.2813,726.0469 Q141.9063,726.0469 142.5,725.7813 Q143.0938,725.5 143.7188,724.9219 L143.7188,727.6406 Z " fill="#000000"/><text fill="#000000" font-family="sans-serif" font-size="14" lengthAdjust="spacing" textLength="27" x="161.25" y="727.432">App</text><line style="stroke:#181818;stroke-width:0.5;" x1="8" x2="309" y1="738" y2="738"/><line style="stroke:#181818;stroke-width:0.5;" x1="8" x2="309" y1="746" y2="746"/><ellipse cx="18" cy="761.034" fill="#84BE84" rx="3" ry="3" style="stroke:#038048;stroke-width:1.0;"/><text fill="#000000" font-family="sans-serif" font-size="14" lengthAdjust="spacing" textLength="207" x="27" y="764.9659">static main(String[] args) : void</text><ellipse cx="18" cy="780.1019" fill="#84BE84" rx="3" ry="3" style="stroke:#038048;stroke-width:1.0;"/><text fill="#000000" font-family="sans-serif" font-size="14" lengthAdjust="spacing" textLength="277" x="27" y="784.0339">start(Stage stage) throws Exception : void</text><rect fill="#F24D5C" height="6" style="stroke:#C82930;stroke-width:1.0;" width="6" x="15" y="796.1698"/><text fill="#000000" font-family="sans-serif" font-size="14" lengthAdjust="spacing" textLength="198" x="27" y="803.1018">makeCalcInstance() : RPNCalc</text><rect fill="#F24D5C" height="6" style="stroke:#C82930;stroke-width:1.0;" width="6" x="15" y="815.2377"/><text fill="#000000" font-family="sans-serif" font-size="14" lengthAdjust="spacing" textLength="268" x="27" y="822.1697">deferUntilStable(Runnable action) : void</text></g><!--class Application--><g id="elem_Application"><rect fill="#F1F1F1" height="48" id="Application" rx="2.5" ry="2.5" style="stroke:#181818;stroke-width:0.5;" width="108" x="104.5" y="302.5"/><ellipse cx="119.5" cy="318.5" fill="#ADD1B2" rx="11" ry="11" style="stroke:#181818;stroke-width:1.0;"/><path d="M122.4688,324.1406 Q121.8906,324.4375 121.25,324.5781 Q120.6094,324.7344 119.9063,324.7344 Q117.4063,324.7344 116.0781,323.0938 Q114.7656,321.4375 114.7656,318.3125 Q114.7656,315.1875 116.0781,313.5313 Q117.4063,311.875 119.9063,311.875 Q120.6094,311.875 121.25,312.0313 Q121.9063,312.1875 122.4688,312.4844 L122.4688,315.2031 Q121.8438,314.625 121.25,314.3594 Q120.6563,314.0781 120.0313,314.0781 Q118.6875,314.0781 118,315.1563 Q117.3125,316.2188 117.3125,318.3125 Q117.3125,320.4063 118,321.4844 Q118.6875,322.5469 120.0313,322.5469 Q120.6563,322.5469 121.25,322.2813 Q121.8438,322 122.4688,321.4219 L122.4688,324.1406 Z " fill="#000000"/><text fill="#000000" font-family="sans-serif" font-size="14" lengthAdjust="spacing" textLength="76" x="133.5" y="323.932">Application</text><line style="stroke:#181818;stroke-width:0.5;" x1="105.5" x2="211.5" y1="334.5" y2="334.5"/><line style="stroke:#181818;stroke-width:0.5;" x1="105.5" x2="211.5" y1="342.5" y2="342.5"/></g><!--class CalcController--><g id="elem_CalcController"><rect codeLine="9" fill="#F1F1F1" height="295.8829" id="CalcController" rx="2.5" ry="2.5" style="stroke:#181818;stroke-width:0.5;" width="385" x="248" y="178.5"/><ellipse cx="388.75" cy="194.5" fill="#ADD1B2" rx="11" ry="11" style="stroke:#181818;stroke-width:1.0;"/><path d="M391.7188,200.1406 Q391.1406,200.4375 390.5,200.5781 Q389.8594,200.7344 389.1563,200.7344 Q386.6563,200.7344 385.3281,199.0938 Q384.0156,197.4375 384.0156,194.3125 Q384.0156,191.1875 385.3281,189.5313 Q386.6563,187.875 389.1563,187.875 Q389.8594,187.875 390.5,188.0313 Q391.1563,188.1875 391.7188,188.4844 L391.7188,191.2031 Q391.0938,190.625 390.5,190.3594 Q389.9063,190.0781 389.2813,190.0781 Q387.9375,190.0781 387.25,191.1563 Q386.5625,192.2188 386.5625,194.3125 Q386.5625,196.4063 387.25,197.4844 Q387.9375,198.5469 389.2813,198.5469 Q389.9063,198.5469 390.5,198.2813 Q391.0938,198 391.7188,197.4219 L391.7188,200.1406 Z " fill="#000000"/><text fill="#000000" font-family="sans-serif" font-size="14" lengthAdjust="spacing" textLength="95" x="409.25" y="199.932">CalcController</text><line style="stroke:#181818;stroke-width:0.5;" x1="249" x2="632" y1="210.5" y2="210.5"/><rect fill="none" height="6" style="stroke:#C82930;stroke-width:1.0;" width="6" x="256" y="222.534"/><text fill="#000000" font-family="sans-serif" font-size="14" lengthAdjust="spacing" textLength="160" x="268" y="229.4659">@FXML input : TextField</text><rect fill="none" height="6" style="stroke:#C82930;stroke-width:1.0;" width="6" x="256" y="241.6019"/><text fill="#000000" font-family="sans-serif" font-size="14" lengthAdjust="spacing" textLength="158" x="268" y="248.5339">@FXML error : TextField</text><rect fill="none" height="6" style="stroke:#C82930;stroke-width:1.0;" width="6" x="256" y="260.6698"/><text fill="#000000" font-family="sans-serif" font-size="14" lengthAdjust="spacing" textLength="94" x="268" y="267.6018">calc : RPNCalc</text><line style="stroke:#181818;stroke-width:0.5;" x1="249" x2="632" y1="275.7038" y2="275.7038"/><ellipse cx="259" cy="290.7377" fill="#84BE84" rx="3" ry="3" style="stroke:#038048;stroke-width:1.0;"/><text fill="#000000" font-family="sans-serif" font-size="14" lengthAdjust="spacing" textLength="191" x="268" y="294.6697">initialize(RPNCalc calc) : void</text><rect fill="#F24D5C" height="6" style="stroke:#C82930;stroke-width:1.0;" width="6" x="256" y="306.8056"/><text fill="#000000" font-family="sans-serif" font-size="14" lengthAdjust="spacing" textLength="268" x="268" y="313.7376">@FXML clearInput(ActionEvent ev) : void</text><rect fill="#F24D5C" height="6" style="stroke:#C82930;stroke-width:1.0;" width="6" x="256" y="325.8735"/><text fill="#000000" font-family="sans-serif" font-size="14" lengthAdjust="spacing" textLength="325" x="268" y="332.8055">@FXML deleteInputByChar(ActionEvent ev) : void</text><rect fill="#F24D5C" height="6" style="stroke:#C82930;stroke-width:1.0;" width="6" x="256" y="344.9415"/><text fill="#000000" font-family="sans-serif" font-size="14" lengthAdjust="spacing" textLength="329" x="268" y="351.8734">@FXML deleteInputByWord(ActionEvent ev) : void</text><rect fill="#F24D5C" height="6" style="stroke:#C82930;stroke-width:1.0;" width="6" x="256" y="364.0094"/><text fill="#000000" font-family="sans-serif" font-size="14" lengthAdjust="spacing" textLength="274" x="268" y="370.9414">@FXML insertInput(ActionEvent ev) : void</text><rect fill="#F24D5C" height="6" style="stroke:#C82930;stroke-width:1.0;" width="6" x="256" y="383.0773"/><text fill="#000000" font-family="sans-serif" font-size="14" lengthAdjust="spacing" textLength="359" x="268" y="390.0093">@FXML insertInputWithSpacing(ActionEvent ev) : void</text><rect fill="#F24D5C" height="6" style="stroke:#C82930;stroke-width:1.0;" width="6" x="256" y="402.1452"/><text fill="#000000" font-family="sans-serif" font-size="14" lengthAdjust="spacing" textLength="164" x="268" y="409.0772">@FXML evalInput() : void</text><rect fill="#F24D5C" height="6" style="stroke:#C82930;stroke-width:1.0;" width="6" x="256" y="421.2131"/><text fill="#000000" font-family="sans-serif" font-size="14" lengthAdjust="spacing" textLength="316" x="268" y="428.1451">@FXML increasePrecision(ActionEvent ev) : void</text><rect fill="#F24D5C" height="6" style="stroke:#C82930;stroke-width:1.0;" width="6" x="256" y="440.281"/><text fill="#000000" font-family="sans-serif" font-size="14" lengthAdjust="spacing" textLength="320" x="268" y="447.213">@FXML decreasePrecision(ActionEvent ev) : void</text><rect fill="#F24D5C" height="6" style="stroke:#C82930;stroke-width:1.0;" width="6" x="256" y="459.349"/><text fill="#000000" font-family="sans-serif" font-size="14" lengthAdjust="spacing" textLength="194" x="268" y="466.2809">setResult(String result) : void</text></g><!--class RPNCalc--><g id="elem_RPNCalc"><rect codeLine="25" fill="#F1F1F1" height="639.1054" id="RPNCalc" rx="2.5" ry="2.5" style="stroke:#181818;stroke-width:0.5;" width="717" x="668" y="7"/><ellipse cx="994.25" cy="23" fill="#ADD1B2" rx="11" ry="11" style="stroke:#181818;stroke-width:1.0;"/><path d="M997.2188,28.6406 Q996.6406,28.9375 996,29.0781 Q995.3594,29.2344 994.6563,29.2344 Q992.1563,29.2344 990.8281,27.5938 Q989.5156,25.9375 989.5156,22.8125 Q989.5156,19.6875 990.8281,18.0313 Q992.1563,16.375 994.6563,16.375 Q995.3594,16.375 996,16.5313 Q996.6563,16.6875 997.2188,16.9844 L997.2188,19.7031 Q996.5938,19.125 996,18.8594 Q995.4063,18.5781 994.7813,18.5781 Q993.4375,18.5781 992.75,19.6563 Q992.0625,20.7188 992.0625,22.8125 Q992.0625,24.9063 992.75,25.9844 Q993.4375,27.0469 994.7813,27.0469 Q995.4063,27.0469 996,26.7813 Q996.5938,26.5 997.2188,25.9219 L997.2188,28.6406 Z " fill="#000000"/><text fill="#000000" font-family="sans-serif" font-size="14" lengthAdjust="spacing" textLength="56" x="1014.75" y="28.432">RPNCalc</text><line style="stroke:#181818;stroke-width:0.5;" x1="669" x2="1384" y1="39" y2="39"/><ellipse cx="679" cy="54.034" fill="none" rx="3" ry="3" style="stroke:#038048;stroke-width:1.0;"/><text fill="#000000" font-family="sans-serif" font-size="14" lengthAdjust="spacing" textLength="214" x="688" y="57.9659">static final MAX_PRECISION : int</text><rect fill="none" height="6" style="stroke:#C82930;stroke-width:1.0;" width="6" x="676" y="70.1019"/><text fill="#000000" font-family="sans-serif" font-size="14" lengthAdjust="spacing" textLength="243" x="688" y="77.0339">static final DEFAULT_PRECISION : int</text><rect fill="none" height="6" style="stroke:#C82930;stroke-width:1.0;" width="6" x="676" y="89.1698"/><text fill="#000000" font-family="sans-serif" font-size="14" lengthAdjust="spacing" textLength="92" x="688" y="96.1018">precision : int</text><rect fill="none" height="6" style="stroke:#C82930;stroke-width:1.0;" width="6" x="676" y="108.2377"/><text fill="#000000" font-family="sans-serif" font-size="14" lengthAdjust="spacing" textLength="99" x="688" y="115.1697">result : Double</text><rect fill="none" height="6" style="stroke:#C82930;stroke-width:1.0;" width="6" x="676" y="127.3056"/><text fill="#000000" font-family="sans-serif" font-size="14" lengthAdjust="spacing" textLength="162" x="688" y="134.2376">leftover : Stack&lt;Double&gt;</text><rect fill="none" height="6" style="stroke:#C82930;stroke-width:1.0;" width="6" x="676" y="146.3735"/><text fill="#000000" font-family="sans-serif" font-size="14" lengthAdjust="spacing" textLength="215" x="688" y="153.3055">registers : Map&lt;String, Double&gt;</text><rect fill="none" height="6" style="stroke:#C82930;stroke-width:1.0;" width="6" x="676" y="165.4415"/><text fill="#000000" font-family="sans-serif" font-size="14" lengthAdjust="spacing" textLength="165" x="688" y="172.3734">interface NAryOperation</text><line style="stroke:#181818;stroke-width:0.5;" x1="669" x2="1384" y1="180.4754" y2="180.4754"/><ellipse cx="679" cy="195.5094" fill="#84BE84" rx="3" ry="3" style="stroke:#038048;stroke-width:1.0;"/><text fill="#000000" font-family="sans-serif" font-size="14" lengthAdjust="spacing" textLength="126" x="688" y="199.4414">&#171;Create&#187; RPNCalc()</text><ellipse cx="679" cy="214.5773" fill="#84BE84" rx="3" ry="3" style="stroke:#038048;stroke-width:1.0;"/><text fill="#000000" font-family="sans-serif" font-size="14" lengthAdjust="spacing" textLength="439" x="688" y="218.5093">&#171;Create&#187; RPNCalc(int precision) throws IllegalArgumentException</text><ellipse cx="679" cy="233.6452" fill="#84BE84" rx="3" ry="3" style="stroke:#038048;stroke-width:1.0;"/><text fill="#000000" font-family="sans-serif" font-size="14" lengthAdjust="spacing" textLength="214" x="688" y="237.5772">getRegister(String reg) : Double</text><ellipse cx="679" cy="252.7131" fill="#84BE84" rx="3" ry="3" style="stroke:#038048;stroke-width:1.0;"/><text fill="#000000" font-family="sans-serif" font-size="14" lengthAdjust="spacing" textLength="297" x="688" y="256.6451">setRegister(String reg, Double val) : boolean</text><ellipse cx="679" cy="271.781" fill="#84BE84" rx="3" ry="3" style="stroke:#038048;stroke-width:1.0;"/><text fill="#000000" font-family="sans-serif" font-size="14" lengthAdjust="spacing" textLength="303" x="688" y="275.713">addRegister(String reg, Double val) : boolean</text><ellipse cx="679" cy="290.849" fill="#84BE84" rx="3" ry="3" style="stroke:#038048;stroke-width:1.0;"/><text fill="#000000" font-family="sans-serif" font-size="14" lengthAdjust="spacing" textLength="144" x="688" y="294.7809">clearRegisters() : void</text><ellipse cx="679" cy="309.9169" fill="#84BE84" rx="3" ry="3" style="stroke:#038048;stroke-width:1.0;"/><text fill="#000000" font-family="sans-serif" font-size="14" lengthAdjust="spacing" textLength="121" x="688" y="313.8489">getPrecision() : int</text><ellipse cx="679" cy="328.9848" fill="#84BE84" rx="3" ry="3" style="stroke:#038048;stroke-width:1.0;"/><text fill="#000000" font-family="sans-serif" font-size="14" lengthAdjust="spacing" textLength="432" x="688" y="332.9168">setPrecision(int precision) throws IllegalArgumentException : int</text><ellipse cx="679" cy="348.0527" fill="#84BE84" rx="3" ry="3" style="stroke:#038048;stroke-width:1.0;"/><text fill="#000000" font-family="sans-serif" font-size="14" lengthAdjust="spacing" textLength="423" x="688" y="351.9847">shiftPrecision(int places) throws IllegalArgumentException : int</text><ellipse cx="679" cy="367.1206" fill="#84BE84" rx="3" ry="3" style="stroke:#038048;stroke-width:1.0;"/><text fill="#000000" font-family="sans-serif" font-size="14" lengthAdjust="spacing" textLength="159" x="688" y="371.0526">getLastResult() : Double</text><ellipse cx="679" cy="386.1885" fill="#84BE84" rx="3" ry="3" style="stroke:#038048;stroke-width:1.0;"/><text fill="#000000" font-family="sans-serif" font-size="14" lengthAdjust="spacing" textLength="203" x="688" y="390.1205">getLastStack() : Stack&lt;Double&gt;</text><ellipse cx="679" cy="405.2565" fill="#84BE84" rx="3" ry="3" style="stroke:#038048;stroke-width:1.0;"/><text fill="#000000" font-family="sans-serif" font-size="14" lengthAdjust="spacing" textLength="221" x="688" y="409.1884">getFormattedLastResult() : String</text><ellipse cx="679" cy="424.3244" fill="#84BE84" rx="3" ry="3" style="stroke:#038048;stroke-width:1.0;"/><text fill="#000000" font-family="sans-serif" font-size="14" lengthAdjust="spacing" textLength="214" x="688" y="428.2564">getFormattedLastStack() : String</text><ellipse cx="679" cy="443.3923" fill="#84BE84" rx="3" ry="3" style="stroke:#038048;stroke-width:1.0;"/><text fill="#000000" font-family="sans-serif" font-size="14" lengthAdjust="spacing" textLength="345" x="688" y="447.3243">eval(String expr) throws RPNCalcException : Double</text><rect fill="#F24D5C" height="6" style="stroke:#C82930;stroke-width:1.0;" width="6" x="676" y="459.4602"/><text fill="#000000" font-family="sans-serif" font-size="14" lengthAdjust="spacing" textLength="460" x="688" y="466.3922">checkPrecision(int precision) throws IllegalArgumentException : void</text><rect fill="#F24D5C" height="6" style="stroke:#C82930;stroke-width:1.0;" width="6" x="676" y="478.5281"/><text fill="#000000" font-family="sans-serif" font-size="14" lengthAdjust="spacing" textLength="245" x="688" y="485.4601">formatNumber(Double num) : String</text><rect fill="#F24D5C" height="6" style="stroke:#C82930;stroke-width:1.0;" width="6" x="676" y="497.596"/><text fill="#000000" font-family="sans-serif" font-size="14" lengthAdjust="spacing" textLength="187" x="688" y="504.528">isUnary(String op) : boolean</text><rect fill="#F24D5C" height="6" style="stroke:#C82930;stroke-width:1.0;" width="6" x="676" y="516.664"/><text fill="#000000" font-family="sans-serif" font-size="14" lengthAdjust="spacing" textLength="190" x="688" y="523.5959">isBinary(String op) : boolean</text><rect fill="#F24D5C" height="6" style="stroke:#C82930;stroke-width:1.0;" width="6" x="676" y="535.7319"/><text fill="#000000" font-family="sans-serif" font-size="14" lengthAdjust="spacing" textLength="180" x="688" y="542.6639">isNAry(String op) : boolean</text><rect fill="#F24D5C" height="6" style="stroke:#C82930;stroke-width:1.0;" width="6" x="676" y="554.7998"/><text fill="#000000" font-family="sans-serif" font-size="14" lengthAdjust="spacing" textLength="601" x="688" y="561.7318">applyNAry(Stack&lt;Double&gt; stack, NAryOperation op) throws EmptyStackException : Double</text><rect fill="#F24D5C" height="6" style="stroke:#C82930;stroke-width:1.0;" width="6" x="676" y="573.8677"/><text fill="#000000" font-family="sans-serif" font-size="14" lengthAdjust="spacing" textLength="691" x="688" y="580.7997">apply(Stack&lt;Double&gt; stack, String op) throws EmptyStackException, IllegalArgumentException : Double</text><rect fill="#F24D5C" height="6" style="stroke:#C82930;stroke-width:1.0;" width="6" x="676" y="592.9356"/><text fill="#000000" font-family="sans-serif" font-size="14" lengthAdjust="spacing" textLength="473" x="688" y="599.8676">store(Stack&lt;Double&gt;, String reg) throws EmptyStackException : Double</text><rect fill="#F24D5C" height="6" style="stroke:#C82930;stroke-width:1.0;" width="6" x="676" y="612.0035"/><text fill="#000000" font-family="sans-serif" font-size="14" lengthAdjust="spacing" textLength="344" x="688" y="618.9355">peek4Store(String[] tokens, int reg_index) : boolean</text><rect fill="#F24D5C" height="6" style="stroke:#C82930;stroke-width:1.0;" width="6" x="676" y="631.0715"/><text fill="#000000" font-family="sans-serif" font-size="14" lengthAdjust="spacing" textLength="202" x="688" y="638.0034">tokenize(String expr) : String[]</text></g><!--class RPNCalcException--><g id="elem_RPNCalcException"><rect codeLine="59" fill="#F1F1F1" height="105.2038" id="RPNCalcException" rx="2.5" ry="2.5" style="stroke:#181818;stroke-width:0.5;" width="479" x="1229" y="715.5"/><ellipse cx="1403.75" cy="731.5" fill="#ADD1B2" rx="11" ry="11" style="stroke:#181818;stroke-width:1.0;"/><path d="M1406.7188,737.1406 Q1406.1406,737.4375 1405.5,737.5781 Q1404.8594,737.7344 1404.1563,737.7344 Q1401.6563,737.7344 1400.3281,736.0938 Q1399.0156,734.4375 1399.0156,731.3125 Q1399.0156,728.1875 1400.3281,726.5313 Q1401.6563,724.875 1404.1563,724.875 Q1404.8594,724.875 1405.5,725.0313 Q1406.1563,725.1875 1406.7188,725.4844 L1406.7188,728.2031 Q1406.0938,727.625 1405.5,727.3594 Q1404.9063,727.0781 1404.2813,727.0781 Q1402.9375,727.0781 1402.25,728.1563 Q1401.5625,729.2188 1401.5625,731.3125 Q1401.5625,733.4063 1402.25,734.4844 Q1402.9375,735.5469 1404.2813,735.5469 Q1404.9063,735.5469 1405.5,735.2813 Q1406.0938,735 1406.7188,734.4219 L1406.7188,737.1406 Z " fill="#000000"/><text fill="#000000" font-family="sans-serif" font-size="14" lengthAdjust="spacing" textLength="121" x="1424.25" y="736.932">RPNCalcException</text><line style="stroke:#181818;stroke-width:0.5;" x1="1230" x2="1707" y1="747.5" y2="747.5"/><rect fill="none" height="6" style="stroke:#C82930;stroke-width:1.0;" width="6" x="1237" y="759.534"/><text fill="#000000" font-family="sans-serif" font-size="14" lengthAdjust="spacing" textLength="154" x="1249" y="766.4659">serialVersionUID : long</text><line style="stroke:#181818;stroke-width:0.5;" x1="1230" x2="1707" y1="774.5679" y2="774.5679"/><ellipse cx="1240" cy="789.6019" fill="#84BE84" rx="3" ry="3" style="stroke:#038048;stroke-width:1.0;"/><text fill="#000000" font-family="sans-serif" font-size="14" lengthAdjust="spacing" textLength="296" x="1249" y="793.5339">&#171;Create&#187; RPNCalcException(String message)</text><ellipse cx="1240" cy="808.6698" fill="#84BE84" rx="3" ry="3" style="stroke:#038048;stroke-width:1.0;"/><text fill="#000000" font-family="sans-serif" font-size="14" lengthAdjust="spacing" textLength="453" x="1249" y="812.6018">&#171;Create&#187; RPNCalcException(String message, String token, int index)</text></g><!--class Exception--><g id="elem_Exception"><rect fill="#F1F1F1" height="48" id="Exception" rx="2.5" ry="2.5" style="stroke:#181818;stroke-width:0.5;" width="97" x="1420" y="302.5"/><ellipse cx="1435" cy="318.5" fill="#ADD1B2" rx="11" ry="11" style="stroke:#181818;stroke-width:1.0;"/><path d="M1437.9688,324.1406 Q1437.3906,324.4375 1436.75,324.5781 Q1436.1094,324.7344 1435.4063,324.7344 Q1432.9063,324.7344 1431.5781,323.0938 Q1430.2656,321.4375 1430.2656,318.3125 Q1430.2656,315.1875 1431.5781,313.5313 Q1432.9063,311.875 1435.4063,311.875 Q1436.1094,311.875 1436.75,312.0313 Q1437.4063,312.1875 1437.9688,312.4844 L1437.9688,315.2031 Q1437.3438,314.625 1436.75,314.3594 Q1436.1563,314.0781 1435.5313,314.0781 Q1434.1875,314.0781 1433.5,315.1563 Q1432.8125,316.2188 1432.8125,318.3125 Q1432.8125,320.4063 1433.5,321.4844 Q1434.1875,322.5469 1435.5313,322.5469 Q1436.1563,322.5469 1436.75,322.2813 Q1437.3438,322 1437.9688,321.4219 L1437.9688,324.1406 Z " fill="#000000"/><text fill="#000000" font-family="sans-serif" font-size="14" lengthAdjust="spacing" textLength="65" x="1449" y="323.932">Exception</text><line style="stroke:#181818;stroke-width:0.5;" x1="1421" x2="1516" y1="334.5" y2="334.5"/><line style="stroke:#181818;stroke-width:0.5;" x1="1421" x2="1516" y1="342.5" y2="342.5"/></g><!--reverse link Application to App--><g id="link_Application_App"><path d="M158.5,368.51 C158.5,434.3 158.5,606.82 158.5,705.75 " fill="none" id="Application-backto-App" style="stroke:#181818;stroke-width:1.0;"/><polygon fill="none" points="158.5,350.51,152.5,368.51,164.5,368.51,158.5,350.51" style="stroke:#181818;stroke-width:1.0;"/></g><!--reverse link Exception to RPNCalcException--><g id="link_Exception_RPNCalcException"><path d="M1468.5,368.51 C1468.5,436.51 1468.5,619.74 1468.5,715.39 " fill="none" id="Exception-backto-RPNCalcException" style="stroke:#181818;stroke-width:1.0;"/><polygon fill="none" points="1468.5,350.51,1462.5,368.51,1474.5,368.51,1468.5,350.51" style="stroke:#181818;stroke-width:1.0;"/></g><!--SRC=[fLRRRXen47tFL_WH5FBMfmf59Lmaf8H449f8KHGvtc6nyDehsqkXKV-zO-zwsKj8GULfyPmvdiiPs-I22MeC6QGfWPq56VblmHcrN4doSK7mTqcCnV-C99JBpi9gBkENLq9rRBhaEzag7XrmsYA2nk2-O-WIkzRgbo7Z7OFKSrOShf1n0qCgs5GYN3BeECBvmyoj5P08Lg2NqdA1lEy2ElDCIlT1A7E4PGX_BaYHZlCUAccr4W9qaSKL-J5vlhibNAQPHPz7J7Z2GKGrAsYjz2TMXfIDq2wHYbjE1V-DGUK6Z-lMSyo9cG2gfsxlpi37FTw2j0Isdw8Z4631ms_smpNLPpizAHsTuiIb0MrF3gm2V-9slKWfGpMSuWbRAl9jZX0p3TJ0WmR63PATbl5PJWRi74mcR25Yels_Ye8A0OLkDlI_uf8ASZTuVdkOZuVJnVH-XgvSsi1VXOt6ay7ozl48D0qHrrRpU71ff39KUB4gO6NL5fmiSGJOffzRhqkdc1iBsg3zZgRzFBSUgQDm4z0hoe3C1df_duBs8ruasEyFiP0Mhgz3xftkSHDo7H8eHtoAmnPJCT1nbc3voualU69N_3pIG_dZRZtPoxn7BLZ8Xg28dCkxKZXFWPf6qTa-VXw3b-aq3Z8Czg2fRgL7Fi23wRnAr7dMVDLa4jWVSnuDHdfBJT1rgvo5sUl6MziAyg29qWcr5g86MLxE8xWgQmNc9Ztq0NQfBXCgz5DDf2PqjWQs-O_YLaPzvUESPSaxQgBGWSoIHgmu5cOfgTw7S5NQL8g3tF1_OznKVOMWUAtk2r2b0-xCO9jUVIWzGRWuazJklKkxRAJA_Jbl9QBZXBslYbhhaB5AGtsdSWy_pIT47Kv0WCstHS5NF2cise0qFITlH_V6PGIxTYqzpDswDP65phwyLfu2BSc5PyvXvQEy7JHUvZ_nDC3LvNI4X4ALecuVWoL322C1OzoRvsoFieG-iJpzF7MNoLy0]--></g></svg>